PathFileType	4	(X/Y/Z)	C:\Users\chris\Documents\GitHub\baseballds\vids\pitch2_Sports2D\pitch2_Sports2D_px_person00.trc
DataRate	CameraRate	NumFrames	NumMarkers	Units	OrigDataRate	OrigDataStartFrame	OrigNumFrames
30	30	9	22	m	30	60	243
Frame#	Time	Hip			RHip			RKnee			RAnkle			RBigToe			RSmallToe			RHeel			LHip			LKnee			LAnkle			LBigToe			LSmallToe			LHeel			Neck			Head			Nose			RShoulder			RElbow			RWrist			LShoulder			LElbow			LWrist		
		X1	Y1	Z1	X2	Y2	Z2	X3	Y3	Z3	X4	Y4	Z4	X5	Y5	Z5	X6	Y6	Z6	X7	Y7	Z7	X8	Y8	Z8	X9	Y9	Z9	X10	Y10	Z10	X11	Y11	Z11	X12	Y12	Z12	X13	Y13	Z13	X14	Y14	Z14	X15	Y15	Z15	X16	Y16	Z16	X17	Y17	Z17	X18	Y18	Z18	X19	Y19	Z19	X20	Y20	Z20	X21	Y21	Z21	X22	Y22	Z22
60	2.0	309.0665501492702	964.5109221795441	0.0	295.1553812013176	986.3280305821677	0.0	378.71246380735846	1269.414414909547	0.0	364.01873427082154	1544.0284429010103	0.0	498.5075107328957	1583.8603233289177	0.0	467.5571382523233	1598.163060261128	0.0	342.95442555342333	1581.1004261431215	0.0	343.27269079741603	985.2455154303575	0.0	393.1510967321094	1248.6809354646755	0.0	394.84820914816464	1453.6603763929675	0.0	514.7843349206514	1516.3065256428797	0.0	501.1967004253768	1495.4770451893664	0.0	368.36138961912957	1490.3879835711452	0.0	449.8604647017906	595.8181576786119	0.0	534.7021767665043	443.8846691509401	0.0	561.3546166130491	566.8375568705106	0.0	400.88852262680564	654.2541089560951	0.0	460.1159390884338	883.1594469639583	0.0	638.2394380012424	858.2568440202475	0.0	458.97900747312735	659.7908639318048	0.0	492.1288990007827	838.2929019615603	0.0	635.2355833526876	853.1717739583453	0.0
61	2.033333333333333	312.8961773916294	963.4232340708479	0.0	298.69883170452204	988.3572534923735	0.0	379.3603795583539	1267.993109550607	0.0	364.56178218425265	1543.3099157941535	0.0	500.5098509551806	1584.404894339128	0.0	469.3059386060694	1598.8149484069802	0.0	342.41063180613554	1581.0695999283207	0.0	346.15874476154374	985.7979324734692	0.0	394.57942418475545	1247.7547575587728	0.0	395.38127046468276	1455.3602339885551	0.0	514.5825764607739	1516.7211708011646	0.0	500.3815253397471	1495.4859315425097	0.0	369.8984737413047	1491.565093575064	0.0	445.90762067037616	590.2437884121815	0.0	524.1098836834909	436.2761119939062	0.0	556.0762320784305	559.431823968912	0.0	397.90306177226165	650.8344471416603	0.0	460.2491618662421	877.1378155382333	0.0	635.4663136094432	850.8269118053395	0.0	451.0367266942846	655.4147953097091	0.0	486.79346484583857	836.5090302337126	0.0	631.3508849658244	847.4759733600971	0.0
62	2.0666666666666664	316.9785986556343	962.9244580815741	0.0	301.2265352015539	988.7880477030103	0.0	381.019658302877	1266.9859482890347	0.0	365.1904440682349	1543.1870640709196	0.0	502.8886230812183	1584.5852128954193	0.0	471.7580971576691	1599.106295188229	0.0	342.69775722753866	1581.2910225259307	0.0	349.2836927037158	985.3985631563959	0.0	396.3470199074017	1247.354210694673	0.0	394.86469316493606	1457.1244699180481	0.0	514.834064266659	1518.0630595782197	0.0	499.515279416325	1495.9384448632431	0.0	370.0208052254503	1492.3080643082337	0.0	440.3943488799399	586.115712873064	0.0	513.3663789824692	429.352411326354	0.0	551.0037394506603	553.1980490896988	0.0	394.07300861545247	647.8427685314869	0.0	460.1089448182704	871.084346766508	0.0	632.8978130448004	843.1670291119851	0.0	447.6335532514634	653.6968552712603	0.0	483.61878650283245	836.440950741827	0.0	627.7569842900916	842.2752310665663	0.0
63	2.1	320.04489143719593	963.3795401065694	0.0	302.57113926505025	988.5819261260577	0.0	383.77283645174606	1267.2366695426135	0.0	366.181639567986	1543.9225564290841	0.0	502.77929752297763	1583.7143089719148	0.0	472.54748303263557	1598.5473002982158	0.0	343.3102131058112	1581.5826824344203	0.0	352.54596404369056	985.0989265892855	0.0	397.83251715068525	1248.469416354541	0.0	392.9696396137601	1457.6101386380146	0.0	512.8481735933028	1519.458431805941	0.0	497.2397119454594	1496.4454891137812	0.0	367.52844585696675	1491.4782499816147	0.0	434.16702455916567	584.3793883044109	0.0	502.1172928044718	424.25177604489994	0.0	545.0680764904098	546.7766790127712	0.0	390.5496597547659	646.0261404751493	0.0	459.29181340691076	868.9194418432215	0.0	632.3192300337205	836.5554921191465	0.0	449.547261224819	654.6077698673572	0.0	487.43784699912453	835.7808631457084	0.0	628.7821799703017	837.9108620951436	0.0
64	2.1333333333333333	321.7233204130339	964.7905926667868	0.0	302.88676806776215	989.5021260418594	0.0	386.49609166909596	1267.53318027382	0.0	366.76783527397714	1544.2707625344344	0.0	501.36692882656047	1583.4039003574921	0.0	472.7126495720125	1598.053336747512	0.0	343.2954512373234	1582.5348995335978	0.0	354.97319600430984	985.8113130809548	0.0	399.06864909804005	1249.9626015844635	0.0	390.3248259107709	1459.1353668610082	0.0	508.40255309007784	1521.6983941496248	0.0	493.17088211343156	1498.2843471652598	0.0	363.2881315381884	1492.4793474637909	0.0	428.0816015587043	584.3316741203987	0.0	491.13946307015016	421.8329320689661	0.0	538.0487123377376	540.8584359706377	0.0	386.08454856234164	645.8853936084216	0.0	458.56149697335644	869.246758192823	0.0	632.9254161193645	831.4627388214665	0.0	451.79582788766163	656.0959095100756	0.0	494.4805425536066	833.864137626999	0.0	632.6265255185324	833.99374034762	0.0
65	2.1666666666666665	323.0867371351384	967.0294310620965	0.0	302.82617337589187	991.933420657534	0.0	388.96595715638915	1267.561265537229	0.0	366.4700994932215	1543.055539759922	0.0	500.7959647632307	1584.935612961708	0.0	472.6294806329241	1598.2859734838219	0.0	342.455469219035	1583.7136451579138	0.0	356.18083347836966	987.4801521279802	0.0	400.5509586192016	1251.3569336595194	0.0	388.1464090645179	1463.721807261268	0.0	504.14580309734185	1525.665698574283	0.0	489.6024952427807	1502.5465084224516	0.0	359.63724399225976	1498.279375979214	0.0	422.31438315618516	585.1060348591525	0.0	481.5054233611729	421.0623859441981	0.0	531.4322641267354	536.6410367096317	0.0	379.4521107821522	647.4496840510978	0.0	458.8515797708716	868.9617161084311	0.0	632.8463756649949	828.1002557158799	0.0	450.7570450114886	657.5496236980596	0.0	498.4368986463678	832.2223088384148	0.0	635.572576130323	830.2324597822467	0.0
66	2.2	324.88971356063905	969.2765966323141	0.0	303.6216851197357	994.2571101787554	0.0	392.39447495042816	1268.7509960651635	0.0	365.6936917832875	1542.0011054840304	0.0	499.53250668440603	1586.0549362577303	0.0	469.15176232515404	1598.9528355943573	0.0	341.887326115094	1583.9738884751298	0.0	356.8910816076108	989.3711687618091	0.0	402.4715196005123	1253.9166115528521	0.0	387.72607453396074	1468.4548674874095	0.0	502.2445813269693	1528.974006911912	0.0	489.28315614374867	1506.9329567544323	0.0	359.15625457897744	1504.9087764410092	0.0	417.0965660903288	586.5895277514699	0.0	473.2428417184617	420.4321108148499	0.0	526.4620892421078	534.2929671150066	0.0	372.4916216600966	650.4492171480667	0.0	460.082323236082	868.33112759175	0.0	632.872188088792	825.3585092974563	0.0	447.88578687291414	659.9417610502263	0.0	499.171625899849	831.5280681481003	0.0	637.1790406721028	827.6420353347453	0.0
67	2.2333333333333334	327.1743134820116	970.7861329048851	0.0	306.30913554683576	994.9536996969078	0.0	396.6759822783499	1271.3230057755113	0.0	365.1095095146024	1543.6741147729183	0.0	495.55978745080427	1585.0938931958196	0.0	461.3460317651184	1599.6250504879392	0.0	342.1318445714927	1583.7812732368338	0.0	358.2083241071018	990.6689410731205	0.0	404.9113987098809	1257.3041150405063	0.0	389.19790068663735	1470.0687111642062	0.0	502.2859149884207	1528.8798083144663	0.0	491.67423119237174	1507.9146426225552	0.0	362.32613905514467	1507.1933857838544	0.0	412.7128120600295	588.2272892902985	0.0	465.36352840468953	419.30735052783905	0.0	522.6298155905158	532.9201365125441	0.0	367.7708818797246	653.7426592763031	0.0	461.2605568041565	868.3688213582586	0.0	634.3218101561715	821.8719269731735	0.0	444.9375137670853	662.1901419376093	0.0	499.8273641385205	830.0534943333093	0.0	638.864794623523	826.4735634151704	0.0
68	2.2666666666666666	330.0266875294571	971.7369878349874	0.0	310.569536964372	994.5800721148813	0.0	399.9374632809679	1273.8762646988478	0.0	365.28520252564454	1547.392507237614	0.0	492.3923457659264	1584.5901281653182	0.0	456.3654721063196	1600.1457975554522	0.0	342.64758559652137	1585.043998102713	0.0	360.5339066012609	990.8834546548568	0.0	407.8136922703382	1259.3002809814197	0.0	390.5816753706372	1470.2346397403605	0.0	502.3328135839614	1526.8612594802266	0.0	493.2375013504014	1505.5050361586518	0.0	365.746565330421	1506.666700548494	0.0	408.8123284962747	588.3994178050311	0.0	457.40071557201344	417.4400827655284	0.0	518.3899515387675	530.6372266043562	0.0	365.1717287270276	655.2687765617982	0.0	461.3550765882329	867.6195567775432	0.0	635.1982543269637	817.9205913085676	0.0	440.7755662341659	661.2243471436982	0.0	499.32303997573666	826.1945562612481	0.0	639.9446551386025	824.7026136261359	0.0
